<svg width="300" height="200" viewBox="0 0 300 200" fill="none" xmlns="http://www.w3.org/2000/svg">
<rect width="300" height="200" rx="10" fill="white"/>
<path d="M142.116 150.431C155.051 138.727 163.178 121.811 163.178 102.995C163.178 84.1848 155.051 67.273 142.116 55.5649C130.734 45.2672 115.646 39 99.0865 39C63.6997 39 35 67.6519 35 102.995C35 138.344 63.6997 167 99.0865 167C115.646 167 130.734 160.728 142.116 150.431Z" fill="#009CDC"/>
<path d="M142.116 150.43C155.051 138.726 163.178 121.81 163.178 102.995C163.178 84.1839 155.051 67.2721 142.116 55.564" fill="#009CDC"/>
<path d="M142.116 150.43C155.051 138.726 163.178 121.81 163.178 102.995C163.178 84.1839 155.051 67.2721 142.116 55.564" stroke="#009CDC" stroke-width="2.2681"/>
<path d="M185.131 39C168.576 39 153.483 45.2672 142.116 55.5649C139.794 57.66 137.632 59.9286 135.639 62.3433H148.579C150.348 64.4886 151.984 66.7481 153.465 69.1125H130.753C129.395 71.2898 128.157 73.5539 127.06 75.891H157.154C158.187 78.0865 159.096 80.346 159.873 82.6739H124.345C123.609 84.8786 122.987 87.1381 122.484 89.4478H161.733C162.68 93.8161 163.178 98.3487 163.178 102.995C163.178 110.102 162.017 116.94 159.873 123.326H124.345C125.126 125.649 126.031 127.913 127.06 130.104H157.154C156.061 132.446 154.827 134.706 153.465 136.887H130.753C132.234 139.252 133.87 141.511 135.639 143.657H148.579C146.591 146.071 144.424 148.34 142.116 150.431C153.483 160.728 168.576 167 185.131 167C220.527 167 249.218 138.344 249.218 102.995C249.218 67.6519 220.527 39 185.131 39Z" fill="#ED2233"/>
<path d="M242.475 138.554H242.708C242.791 138.554 242.891 138.558 242.969 138.517C243.038 138.471 243.074 138.389 243.074 138.312C243.074 138.239 243.033 138.161 242.969 138.125C242.896 138.079 242.777 138.093 242.695 138.093H242.475V138.554ZM242.475 139.581H242.05V137.764H242.814C242.974 137.764 243.143 137.769 243.28 137.86C243.431 137.956 243.513 138.134 243.513 138.312C243.513 138.517 243.394 138.709 243.198 138.782L243.536 139.581H243.065L242.786 138.864H242.475V139.581ZM242.754 140.247C243.623 140.247 244.331 139.544 244.331 138.677C244.331 137.81 243.623 137.107 242.754 137.107C241.89 137.107 241.177 137.81 241.177 138.677C241.177 139.544 241.89 140.247 242.754 140.247ZM240.684 138.677C240.684 137.531 241.607 136.609 242.754 136.609C243.901 136.609 244.82 137.531 244.82 138.677C244.82 139.813 243.901 140.745 242.754 140.745C241.607 140.745 240.684 139.813 240.684 138.677Z" fill="#ED2233"/>
<path d="M89.0858 120.807H81.0322L85.7675 95.8617L74.8525 120.807H68.1152L66.7897 95.9986L61.5105 120.807H54.1836L60.3678 88.3575H73.0334L73.1751 108.442L81.9509 88.3575H95.3706L89.0858 120.807Z" fill="#003873"/>
<path d="M178.206 120.478C176.022 121.076 174.317 121.336 172.475 121.336C168.393 121.336 166.167 119.291 166.167 115.539C166.167 114.799 166.245 114.005 166.405 113.174L166.885 110.591L167.259 108.5L170.957 88.3568H178.892L177.74 94.414H181.808L180.716 100.832H176.629L174.527 111.842C174.435 112.321 174.39 112.681 174.39 112.928C174.39 114.293 175.213 114.886 177.109 114.886C178.019 114.886 178.723 114.804 179.262 114.635L178.206 120.478Z" fill="#003873"/>
<path d="M146.539 102.754C146.539 106.086 148.418 108.382 152.682 110.103C155.95 111.431 156.458 111.819 156.458 113.024C156.458 114.668 155.018 115.407 151.828 115.407C149.414 115.407 147.179 115.074 144.597 114.357L143.481 120.447L143.847 120.501L145.323 120.775C145.794 120.862 146.498 120.935 147.431 121.003C149.35 121.154 150.831 121.227 151.878 121.227C160.393 121.227 164.329 118.434 164.329 112.422C164.329 108.802 162.688 106.675 158.638 105.078C155.256 103.736 154.867 103.443 154.867 102.211C154.867 100.791 156.206 100.061 158.816 100.061C160.398 100.061 162.56 100.207 164.612 100.454L165.764 94.3462C163.675 94.0587 160.503 93.8259 158.661 93.8259C149.638 93.8259 146.512 97.8838 146.539 102.754Z" fill="#003873"/>
<path d="M109.512 109.048C108.676 108.957 108.31 108.934 107.73 108.934C103.209 108.934 100.919 110.29 100.919 112.951C100.919 114.594 102.035 115.644 103.781 115.644C107.035 115.644 109.375 112.946 109.512 109.048ZM114.897 120.807H108.265L108.425 118.072C106.4 120.231 103.712 121.254 100.051 121.254C95.7361 121.254 92.7651 118.319 92.7651 114.051C92.7651 107.624 97.9209 103.877 106.774 103.877C107.689 103.877 108.836 103.95 110.029 104.082C110.276 103.215 110.34 102.836 110.34 102.366C110.34 100.617 108.95 99.9693 105.225 99.9693C102.949 99.9693 100.375 100.248 98.5974 100.704L97.4913 100.978L96.7783 101.151L97.8798 95.2175C101.861 94.2042 104.485 93.8162 107.433 93.8162C114.284 93.8162 117.913 96.4956 117.913 101.558C117.913 102.859 117.785 103.854 117.26 106.789C116.579 111.381 115.445 116.132 114.897 120.807Z" fill="#003873"/>
<path d="M137.243 104.533C137.289 103.981 137.307 103.525 137.307 103.182C137.307 101.046 135.913 99.7771 133.536 99.7771C130.995 99.7771 129.185 101.471 128.449 104.511L137.243 104.533ZM141.114 120.231C138.381 120.957 135.739 121.308 132.942 121.304C124.024 121.299 119.38 117.241 119.38 109.486C119.38 100.421 125.29 93.7564 133.317 93.7564C139.885 93.7564 144.076 97.4902 144.076 103.347C144.076 105.291 143.788 107.185 143.098 109.856H127.242C127.178 110.267 127.16 110.449 127.16 110.691C127.16 113.754 129.523 115.306 134.158 115.306C137.005 115.306 139.583 114.79 142.44 113.635L141.114 120.231Z" fill="#003873"/>
<path d="M218.15 105.684C218.15 102.927 217.031 100.32 213.758 100.32C209.69 100.32 207.167 105.118 207.167 109.363C207.167 112.941 208.895 115.342 211.747 115.288C213.474 115.288 217.159 112.941 217.89 108.833C218.059 107.879 218.15 106.82 218.15 105.684ZM226.25 108.838C225.061 117.616 218.923 121.514 210.759 121.514C201.737 121.514 198.089 116.041 198.089 109.349C198.089 99.9917 204.26 93.656 213.794 93.656C222.068 93.656 226.465 98.8733 226.465 105.565C226.465 107.19 226.46 107.304 226.25 108.838Z" fill="#003873"/>
<path d="M228.919 116.743H229.156C229.243 116.743 229.339 116.753 229.412 116.711C229.481 116.67 229.522 116.584 229.522 116.501C229.522 116.433 229.472 116.355 229.417 116.323C229.344 116.273 229.225 116.282 229.147 116.282H228.919V116.743ZM228.919 117.775H228.498V115.963H229.266C229.421 115.963 229.586 115.963 229.732 116.05C229.878 116.15 229.965 116.328 229.965 116.506C229.965 116.711 229.842 116.903 229.645 116.976L229.979 117.775H229.508L229.229 117.063H228.919V117.775ZM229.202 118.432C230.07 118.432 230.77 117.738 230.77 116.871C230.77 116.004 230.07 115.301 229.202 115.301C228.333 115.301 227.63 116.004 227.63 116.871C227.63 117.738 228.333 118.432 229.202 118.432ZM227.131 116.871C227.131 115.725 228.055 114.803 229.202 114.803C230.34 114.803 231.272 115.725 231.272 116.871C231.272 118.012 230.34 118.939 229.202 118.939C228.055 118.939 227.131 118.012 227.131 116.871Z" fill="white"/>
<path d="M91.0833 118.939H83.1073L87.8517 93.9935L76.9322 118.939H69.6602L68.3301 94.1305L63.5719 118.939H56.3364L62.5207 86.4894H74.9668L75.625 106.578L84.4054 86.4894H97.3726L91.0833 118.939Z" fill="white"/>
<path d="M180.222 118.611C178.042 119.213 176.332 119.469 174.495 119.469C170.409 119.469 168.183 117.424 168.183 113.672C168.183 112.928 168.265 112.143 168.416 111.303L168.9 108.724L169.28 106.633L172.973 86.4851H180.908L179.756 92.5514H183.828L182.736 98.9601H178.64L176.543 109.97C176.451 110.458 176.41 110.819 176.41 111.061C176.41 112.426 177.228 113.024 179.13 113.024C180.035 113.024 180.743 112.937 181.278 112.768L180.222 118.611Z" fill="white"/>
<path d="M200.722 100.125L200.534 99.2851L202.13 95.1542C201.755 95.1131 201.599 95.1085 201.522 95.0811C201.097 94.9899 200.873 94.9396 200.836 94.9351C200.594 94.8894 200.329 94.8666 200.032 94.8666C197.413 94.8666 195.525 96.026 193.089 99.1482L193.925 94.4558H185.661L180.748 120.807H188.673C189.766 114.754 190.246 111.308 190.89 108.46C191.95 103.704 195.493 101.549 198.02 102.028C198.299 102.083 198.546 102.092 198.912 102.234L199.396 102.416L200.722 100.125Z" fill="#003873"/>
<path d="M203.519 92.7657C202.847 92.5055 202.696 92.5055 202.614 92.4781C202.189 92.3868 201.969 92.332 201.928 92.3275C201.686 92.2818 201.421 92.2544 201.124 92.2544C198.505 92.2544 196.617 93.423 194.181 96.5451L194.885 92.5511H187.658L182.795 118.939H190.775C193.632 102.799 194.857 99.9686 198.687 99.9686C198.971 99.9686 199.304 99.9914 199.698 100.032L200.625 100.229L203.519 92.7657Z" fill="white"/>
<path d="M148.601 100.887C148.601 104.219 150.485 106.519 154.754 108.24C158.017 109.564 158.52 109.956 158.52 111.157C158.52 112.796 157.08 113.535 153.89 113.535C151.481 113.535 149.241 113.211 146.659 112.494L145.553 118.579L145.909 118.638L147.39 118.912C147.861 118.994 148.569 119.063 149.497 119.136C151.412 119.286 152.898 119.359 153.945 119.359C162.46 119.359 166.391 116.58 166.391 110.554C166.391 106.93 164.75 104.807 160.709 103.205C157.322 101.872 156.934 101.576 156.934 100.348C156.934 98.9237 158.273 98.1934 160.883 98.1934C162.465 98.1934 164.631 98.344 166.683 98.586L167.831 92.4786C165.742 92.1955 162.574 91.9628 160.732 91.9628C151.7 91.9628 148.579 96.0161 148.601 100.887Z" fill="white"/>
<path d="M111.194 107.181C110.358 107.094 109.987 107.072 109.412 107.072C104.891 107.072 102.601 108.423 102.601 111.084C102.601 112.727 103.716 113.782 105.462 113.782C108.712 113.782 111.062 111.079 111.194 107.181ZM117.017 118.94H110.385L110.536 116.201C108.52 118.364 105.833 119.396 102.172 119.396C97.8476 119.396 94.8857 116.456 94.8857 112.184C94.8857 105.762 100.042 102.014 108.895 102.014C109.8 102.014 110.956 102.083 112.149 102.219C112.392 101.348 112.456 100.969 112.456 100.499C112.456 98.7504 111.071 98.0977 107.341 98.0977C105.069 98.0977 102.487 98.3807 100.713 98.8326L99.6119 99.1156L98.8989 99.289L100 93.3505C103.982 92.3417 106.605 91.9537 109.553 91.9537C116.405 91.9537 120.029 94.6331 120.029 99.6907C120.029 100.996 119.906 101.987 119.38 104.922C118.731 109.532 117.543 114.256 117.017 118.94Z" fill="white"/>
<path d="M138.934 102.667C138.98 102.115 138.998 101.663 138.998 101.321C138.998 99.1752 137.599 97.9153 135.227 97.9153C132.695 97.9153 130.871 99.6088 130.135 102.649L138.934 102.667ZM143.185 118.365C140.443 119.086 137.801 119.442 135.003 119.442C126.09 119.428 121.442 115.379 121.442 107.62C121.442 98.5544 127.356 91.8855 135.387 91.8855C141.946 91.8855 146.142 95.6239 146.142 101.48C146.142 103.42 145.859 105.319 145.16 107.994H129.304C129.24 108.4 129.221 108.587 129.221 108.829C129.221 111.883 131.594 113.444 136.224 113.444C139.076 113.444 141.649 112.924 144.51 111.773L143.185 118.365Z" fill="white"/>
<path d="M220.102 103.598C220.102 100.836 218.977 98.23 215.705 98.23C211.637 98.23 209.109 103.036 209.109 107.272C209.109 110.851 210.846 113.261 213.698 113.206C215.421 113.206 219.11 110.851 219.841 106.743C220.01 105.789 220.102 104.73 220.102 103.598ZM228.315 106.971C227.118 115.749 220.984 119.647 212.821 119.647C203.793 119.647 200.15 114.174 200.15 107.478C200.15 98.125 206.321 91.7939 215.855 91.7939C224.129 91.7939 228.521 97.0066 228.521 103.698C228.521 105.328 228.521 105.433 228.315 106.971Z" fill="white"/>
</svg>
