<svg width="300" height="200" viewBox="0 0 300 200" fill="none" xmlns="http://www.w3.org/2000/svg">
<rect width="300" height="200" rx="10" fill="#006FCF"/>
<path d="M62 12H237.563V106.82L228.873 120.404L237.563 132.495V187.648H62V98.2616L67.4312 92.0128L62 86.0356V12Z" fill="#016FD0"/>
<path d="M96.0806 134.396V106.82H125.265L128.396 110.904L131.631 106.82H237.563V132.495C237.563 132.495 234.792 134.369 231.588 134.396H172.932L169.401 130.049V134.396H157.833V126.976C157.833 126.976 156.253 128.012 152.836 128.012H148.899V134.396H131.383L128.257 130.225L125.082 134.396H96.0806Z" fill="white"/>
<path d="M62 86.036L68.5812 70.6855H79.9626L83.6975 79.2843V70.6855H97.8458L100.069 76.9004L102.225 70.6855H165.735V73.81C165.735 73.81 169.074 70.6855 174.561 70.6855L195.168 70.7576L198.838 79.2438V70.6855H210.678L213.937 75.5602V70.6855H225.886V98.2621H213.937L210.814 93.3717V98.2621H193.419L191.669 93.915H186.993L185.272 98.2621H173.475C168.754 98.2621 165.735 95.2014 165.735 95.2014V98.2621H147.948L144.418 93.915V98.2621H78.2766L76.5284 93.915H71.8668L70.131 98.2621H62V86.036Z" fill="white"/>
<path d="M70.9103 74.085L62.0337 94.7334H67.8128L69.4506 90.5986H78.9722L80.6015 94.7334H86.5079L77.6398 74.085H70.9103ZM74.1944 78.8905L77.0967 86.1158H71.2837L74.1944 78.8905Z" fill="#016FD0"/>
<path d="M87.1191 94.7295V74.0811L95.3316 74.1116L100.108 87.4244L104.77 74.0811H112.917V94.7295H107.758V79.5149L102.288 94.7295H97.7633L92.2788 79.5149V94.7295H87.1191Z" fill="#016FD0"/>
<path d="M116.448 94.7295V74.0811H133.284V78.6998H121.662V82.2318H133.013V86.5788H121.662V90.2466H133.284V94.7295H116.448Z" fill="#016FD0"/>
<path d="M136.271 74.085V94.7334H141.431V87.3978H143.603L149.79 94.7334H156.095L149.306 87.1261C152.092 86.8909 154.966 84.4983 154.966 80.7838C154.966 76.4387 151.557 74.085 147.753 74.085H136.271ZM141.431 78.7037H147.329C148.743 78.7037 149.773 79.811 149.773 80.8772C149.773 82.249 148.439 83.0507 147.405 83.0507H141.431V78.7037Z" fill="#016FD0"/>
<path d="M162.341 94.7295H157.073V74.0811H162.341V94.7295Z" fill="#016FD0"/>
<path d="M174.832 94.7295H173.695C168.193 94.7295 164.853 90.3927 164.853 84.4902C164.853 78.4419 168.156 74.0811 175.104 74.0811H180.807V78.9715H174.895C172.075 78.9715 170.08 81.1737 170.08 84.5411C170.08 88.5399 172.361 90.2195 175.647 90.2195H177.005L174.832 94.7295Z" fill="#016FD0"/>
<path d="M186.06 74.085L177.184 94.7334H182.963L184.601 90.5986H194.122L195.751 94.7334H201.658L192.79 74.085H186.06ZM189.344 78.8905L192.247 86.1158H186.434L189.344 78.8905Z" fill="#016FD0"/>
<path d="M202.26 94.7295V74.0811H208.82L217.196 87.0543V74.0811H222.355V94.7295H216.007L207.419 81.4167V94.7295H202.26Z" fill="#016FD0"/>
<path d="M99.6108 130.865V110.216H116.447V114.835H104.825V118.367H116.176V122.714H104.825V126.382H116.447V130.865H99.6108Z" fill="#016FD0"/>
<path d="M182.11 130.865V110.216H198.947V114.835H187.324V118.367H198.621V122.714H187.324V126.382H198.947V130.865H182.11Z" fill="#016FD0"/>
<path d="M117.101 130.865L125.299 120.668L116.906 110.216H123.406L128.405 116.677L133.42 110.216H139.666L131.383 120.541L139.596 130.865H133.097L128.243 124.506L123.508 130.865H117.101Z" fill="#016FD0"/>
<path d="M140.208 110.22V130.868H145.504V124.348H150.935C155.531 124.348 159.014 121.908 159.014 117.165C159.014 113.235 156.282 110.22 151.605 110.22H140.208ZM145.504 114.889H151.224C152.708 114.889 153.769 115.8 153.769 117.267C153.769 118.645 152.714 119.644 151.207 119.644H145.504V114.889Z" fill="#016FD0"/>
<path d="M161.255 110.216V130.865H166.414V123.529H168.587L174.773 130.865H181.079L174.29 123.257C177.076 123.022 179.95 120.63 179.95 116.915C179.95 112.57 176.541 110.216 172.737 110.216H161.255ZM166.414 114.835H172.312C173.727 114.835 174.756 115.942 174.756 117.009C174.756 118.38 173.423 119.182 172.389 119.182H166.414V114.835Z" fill="#016FD0"/>
<path d="M201.337 130.865V126.382H211.663C213.191 126.382 213.852 125.556 213.852 124.65C213.852 123.782 213.193 122.904 211.663 122.904H206.997C202.941 122.904 200.682 120.432 200.682 116.72C200.682 113.409 202.75 110.216 208.777 110.216H218.825L216.653 114.862H207.963C206.302 114.862 205.79 115.734 205.79 116.567C205.79 117.423 206.422 118.367 207.691 118.367H212.579C217.101 118.367 219.063 120.933 219.063 124.293C219.063 127.906 216.876 130.865 212.333 130.865H201.337Z" fill="#016FD0"/>
<path d="M220.274 130.865V126.382H230.6C232.128 126.382 232.789 125.556 232.789 124.65C232.789 123.782 232.13 122.904 230.6 122.904H225.934C221.878 122.904 219.619 120.432 219.619 116.72C219.619 113.409 221.687 110.216 227.715 110.216H237.762L235.59 114.862H226.9C225.239 114.862 224.727 115.734 224.727 116.567C224.727 117.423 225.359 118.367 226.628 118.367H231.516C236.038 118.367 238 120.933 238 124.293C238 127.906 235.813 130.865 231.27 130.865H220.274Z" fill="#016FD0"/>
</svg>
