<svg width="300" height="200" viewBox="0 0 300 200" fill="none" xmlns="http://www.w3.org/2000/svg">
<rect width="300" height="200" rx="10" fill="white"/>
<path fill-rule="evenodd" clip-rule="evenodd" d="M220 178.612C220 183.842 215.759 188.083 210.529 188.083H88.4711C83.24 188.083 79 183.842 79 178.612V21.4711C79 16.24 83.2407 12 88.4711 12H210.529C215.759 12 220 16.2407 220 21.4711V178.612Z" fill="#0C9E6F"/>
<path fill-rule="evenodd" clip-rule="evenodd" d="M220 178.612C220 183.843 215.759 188.083 210.529 188.083H88.4711C83.24 188.083 79 183.843 79 178.612V152.332H220V178.612Z" fill="black"/>
<path d="M174.507 64.9321C189.27 87.6004 182.859 117.946 160.19 132.708C137.521 147.471 107.176 141.061 92.4141 118.392L106.488 108.935C116.074 123.656 135.779 127.818 150.498 118.231C165.218 108.646 169.381 88.9409 159.794 74.2214L174.507 64.9321Z" fill="white"/>
<path d="M207.259 44.1254C192.467 21.4758 162.114 15.1048 139.464 29.8971C116.814 44.6887 110.444 75.0418 125.236 97.6927L139.564 88.6266C129.959 73.9191 134.095 54.2092 148.804 44.6038C163.511 34.9984 183.221 39.1349 192.826 53.843L207.259 44.1254Z" fill="black"/>
<path d="M95.1011 176.148L97.474 174.051C98.9796 175.432 100.628 176.219 102.908 176.219C104.923 176.219 106.364 175.361 106.606 174.122L106.616 174.074C106.85 172.884 106.233 172.241 102.927 171.526C99.1453 170.668 97.1239 169.62 97.7266 166.547L97.736 166.5C98.2966 163.641 101.336 161.664 105.021 161.664C107.725 161.664 109.727 162.401 111.343 163.76L109.159 165.975C107.708 164.855 106.155 164.26 104.458 164.26C102.549 164.26 101.263 165.142 101.048 166.238L101.038 166.285C100.787 167.572 101.523 168.143 104.952 168.906C108.707 169.763 110.474 171.026 109.932 173.79L109.923 173.838C109.311 176.958 106.216 178.816 102.319 178.816C99.4821 178.815 96.9775 177.934 95.1011 176.148Z" fill="white"/>
<path d="M113.88 161.9H117.406L119.408 174.266L126.403 161.853H129.16L131.286 174.266L138.138 161.9H141.558L131.821 178.697H128.985L126.776 166.713L119.865 178.697H117.055L113.88 161.9Z" fill="white"/>
<path d="M144.948 161.9H148.21L144.938 178.578H141.677L144.948 161.9Z" fill="white"/>
<path d="M157.061 164.617H151.175L151.708 161.901H166.766L166.233 164.617H160.348L157.609 178.578H154.322L157.061 164.617Z" fill="white"/>
<path d="M166.605 170.287L166.614 170.24C167.544 165.499 172.255 161.616 177.877 161.616C181.296 161.616 183.154 162.688 184.631 164.212L182.111 166.381C180.87 165.142 179.442 164.308 177.321 164.308C173.795 164.308 170.683 166.929 170.043 170.192L170.033 170.24C169.393 173.504 171.445 176.149 174.999 176.149C177.278 176.149 178.895 175.338 180.748 174.004L182.468 175.911C180.178 177.721 177.833 178.864 174.36 178.864C168.952 178.864 165.664 175.076 166.605 170.287Z" fill="white"/>
<path d="M188.503 161.9H191.763L190.404 168.833H199.258L200.618 161.9H203.879L200.607 178.578H197.347L198.725 171.549H189.87L188.492 178.578H185.231L188.503 161.9Z" fill="white"/>
</svg>
