<svg width="300" height="200" viewBox="0 0 300 200" fill="none" xmlns="http://www.w3.org/2000/svg">
<rect width="300" height="200" rx="10" fill="white"/>
<path d="M258.27 80.052L252.295 117.605C252.272 117.743 252.281 117.884 252.318 118.019C252.356 118.153 252.423 118.278 252.514 118.384C252.605 118.49 252.719 118.574 252.846 118.632C252.973 118.689 253.111 118.718 253.251 118.717H260.323C260.572 118.719 260.814 118.631 261.005 118.471C261.195 118.31 261.322 118.086 261.362 117.839L267.337 80.2859C267.36 80.148 267.352 80.0069 267.314 79.8724C267.276 79.738 267.209 79.6134 267.118 79.5075C267.027 79.4016 266.914 79.317 266.786 79.2594C266.659 79.2019 266.521 79.1729 266.381 79.1745H259.31C259.06 79.1696 258.816 79.2559 258.625 79.4174C258.433 79.5788 258.307 79.8044 258.27 80.052ZM250.719 91.0109H244.01C243.76 91.0085 243.519 91.0956 243.328 91.2563C243.138 91.417 243.011 91.6408 242.971 91.8869L242.75 93.2695C242.75 93.2695 237.538 87.6172 228.312 91.437C223.018 93.624 220.478 98.1426 219.396 101.453C219.396 101.453 215.965 111.514 223.726 117.051C223.726 117.051 230.923 122.377 239.026 116.723L238.886 117.605C238.854 117.812 238.89 118.025 238.99 118.209C239.089 118.394 239.246 118.541 239.437 118.627C239.564 118.687 239.702 118.717 239.842 118.717H246.556C246.807 118.722 247.05 118.635 247.241 118.474C247.433 118.312 247.559 118.087 247.596 117.839L251.68 92.1223C251.703 91.9846 251.695 91.8435 251.656 91.7092C251.618 91.575 251.55 91.451 251.458 91.3462C251.367 91.2393 251.254 91.1538 251.126 91.0956C250.998 91.0375 250.859 91.0095 250.719 91.0109ZM240.846 105.224C240.584 107.02 239.676 108.66 238.292 109.835C236.902 111.013 235.132 111.65 233.31 111.627C232.595 111.635 231.884 111.532 231.201 111.32C228.304 110.396 226.651 107.634 227.126 104.64C227.39 102.844 228.299 101.205 229.683 100.032C231.072 98.8521 232.84 98.2136 234.662 98.2335C235.377 98.2261 236.089 98.3306 236.771 98.5434C239.686 99.4611 241.332 102.228 240.854 105.225H240.846V105.224ZM205.018 105.934C208.657 105.934 212.176 104.641 214.94 102.29C217.699 99.9472 219.525 96.6919 220.087 93.116C221.263 85.6775 215.411 79.1849 207.115 79.1849H193.751C193.502 79.1826 193.26 79.2698 193.069 79.4309C192.879 79.5919 192.752 79.816 192.713 80.0624L186.736 117.616C186.704 117.823 186.74 118.035 186.84 118.22C186.939 118.404 187.096 118.551 187.287 118.638C187.415 118.697 187.552 118.727 187.692 118.727H194.768C195.018 118.73 195.26 118.642 195.45 118.481C195.641 118.32 195.767 118.096 195.806 117.85L197.561 106.822C197.598 106.574 197.724 106.348 197.915 106.187C198.106 106.025 198.35 105.938 198.6 105.943L205.018 105.934ZM210.937 92.7778C210.5 95.528 208.359 97.5526 204.261 97.5526H199.023L200.614 87.5516H205.758C209.994 87.5591 211.373 90.0396 210.937 92.7853V92.7778Z" fill="#0070E0"/>
<path d="M178.674 91.6487L170.581 105.213L166.473 91.7485C166.409 91.5337 166.277 91.3455 166.096 91.2125C165.916 91.0795 165.697 91.0088 165.472 91.0111H158.169C157.98 91.0085 157.796 91.0744 157.652 91.1965C157.508 91.3186 157.412 91.4887 157.384 91.6755C157.366 91.7994 157.379 91.9257 157.421 92.0435L164.781 114.724L158.124 125.412C158.067 125.5 158.029 125.599 158.012 125.702C157.995 125.805 157.999 125.91 158.024 126.012C158.05 126.114 158.095 126.209 158.158 126.292C158.221 126.375 158.301 126.445 158.392 126.497C158.514 126.567 158.652 126.603 158.793 126.601H166.659C166.884 126.602 167.105 126.544 167.301 126.435C167.497 126.325 167.661 126.167 167.778 125.975L188.337 92.2059C188.412 92.0883 188.453 91.9526 188.455 91.8134C188.458 91.6742 188.423 91.5369 188.354 91.4163C188.284 91.2953 188.183 91.1952 188.062 91.1263C187.941 91.0573 187.803 91.0222 187.664 91.0245H179.8C179.575 91.0224 179.352 91.0788 179.155 91.1882C178.958 91.2976 178.792 91.4563 178.674 91.6487ZM154.028 91.0111H147.313C147.063 91.0087 146.82 91.0961 146.63 91.2574C146.439 91.4188 146.312 91.6433 146.273 91.8901L146.056 93.2711C146.056 93.2711 140.84 87.6188 131.613 91.4387C126.322 93.6257 123.779 98.1442 122.702 101.455C122.702 101.455 119.268 111.515 127.028 117.053C127.028 117.053 134.226 122.379 142.329 116.725L142.189 117.607C142.156 117.814 142.192 118.026 142.292 118.211C142.392 118.396 142.549 118.543 142.74 118.629C142.867 118.689 143.005 118.718 143.145 118.718H149.859C150.109 118.72 150.35 118.633 150.541 118.472C150.731 118.311 150.858 118.087 150.898 117.841L154.983 92.124C155.016 91.9165 154.98 91.7039 154.881 91.5189C154.781 91.3339 154.623 91.1868 154.432 91.1005C154.305 91.042 154.168 91.0115 154.028 91.0111ZM144.154 105.227C143.889 107.021 142.981 108.658 141.598 109.832C140.209 111.01 138.441 111.648 136.619 111.628C135.905 111.636 135.195 111.533 134.513 111.321C131.618 110.398 129.966 107.636 130.441 104.64C130.706 102.84 131.618 101.199 133.007 100.024C134.402 98.8449 136.175 98.2094 138.001 98.2351C138.716 98.2277 139.429 98.3319 140.112 98.545C142.996 99.4627 144.639 102.228 144.163 105.227H144.154ZM108.327 105.936C111.959 105.934 115.473 104.641 118.24 102.287C120.996 99.9444 122.821 96.6903 123.382 93.1162C124.558 85.6791 118.705 79.1866 110.412 79.1866H97.0467C96.7973 79.1841 96.5553 79.2711 96.3646 79.4318C96.1738 79.5925 96.047 79.8163 96.0071 80.0626L90.0497 117.605C90.0164 117.813 90.0523 118.026 90.1519 118.211C90.2515 118.396 90.4093 118.543 90.6007 118.629C90.7273 118.687 90.8659 118.718 91.0059 118.718H98.0773C98.3272 118.721 98.5695 118.633 98.7603 118.472C98.9511 118.311 99.0777 118.086 99.1169 117.839L100.868 106.812C100.906 106.564 101.032 106.339 101.223 106.177C101.414 106.016 101.658 105.929 101.908 105.934L108.327 105.936ZM114.246 92.778C113.809 95.5281 111.669 97.5528 107.572 97.5528H102.334L103.922 87.5518H109.066C113.303 87.5592 114.681 90.0412 114.246 92.7854V92.778Z" fill="#003087"/>
<path d="M62.6112 81.116C62.7705 72.8238 55.9329 66.4624 46.5305 66.4624H27.0825C26.6293 66.4622 26.1909 66.6239 25.8463 66.9183C25.5017 67.2128 25.2735 67.6206 25.2029 68.0684L17.4105 116.774C17.3757 116.995 17.3891 117.221 17.4497 117.436C17.5104 117.651 17.617 117.85 17.7621 118.02C17.9071 118.19 18.0873 118.326 18.2902 118.42C18.493 118.514 18.7138 118.562 18.9371 118.562H30.4588L28.6582 129.84C28.6233 130.061 28.6367 130.286 28.6974 130.501C28.7581 130.716 28.8646 130.916 29.0097 131.086C29.1548 131.255 29.335 131.392 29.5378 131.485C29.7407 131.579 29.9614 131.628 30.1848 131.628H39.5708C40.0235 131.628 40.4271 131.465 40.7727 131.172C41.1152 130.877 41.1718 130.47 41.2433 130.022L43.9986 113.807C44.0686 113.36 44.2965 112.779 44.6405 112.484C44.9846 112.189 45.2854 112.028 45.7397 112.028H51.4827C60.6914 112.028 68.5031 105.48 69.9314 96.3745C70.9427 89.9118 68.1725 84.0316 62.6112 81.116Z" fill="#001C64"/>
<path d="M32.9521 100.599L30.0821 118.802L28.2799 130.219C28.2453 130.44 28.2589 130.666 28.3198 130.881C28.3806 131.096 28.4874 131.295 28.6326 131.465C28.7778 131.634 28.9581 131.771 29.161 131.864C29.3639 131.958 29.5847 132.006 29.808 132.006H39.7421C40.1948 132.005 40.6327 131.844 40.9767 131.549C41.3208 131.255 41.5484 130.847 41.6187 130.4L44.237 113.805C44.3075 113.357 44.5355 112.95 44.8798 112.655C45.2241 112.361 45.6621 112.199 46.115 112.199H51.9623C61.171 112.199 68.9827 105.48 70.4125 96.3742C71.4253 89.9115 68.1725 84.0298 62.6112 81.1143C62.5963 81.8025 62.5367 82.4893 62.431 83.1702C61.0027 92.2728 53.188 98.9933 43.9823 98.9933H34.8302C34.3771 98.9938 33.939 99.156 33.5948 99.4506C33.2505 99.7453 33.0226 100.152 32.9521 100.599Z" fill="#0070E0"/>
<path d="M30.0808 118.802H18.5233C18.3 118.802 18.0793 118.753 17.8765 118.66C17.6737 118.566 17.4936 118.43 17.3486 118.26C17.2036 118.09 17.0972 117.89 17.0367 117.675C16.9762 117.46 16.9631 117.235 16.9982 117.014L24.7905 67.5855C24.8611 67.1379 25.0891 66.7303 25.4334 66.4359C25.7777 66.1415 26.2157 65.9796 26.6686 65.9795H46.5308C55.9331 65.9795 62.7708 72.8236 62.6114 81.1143C60.2716 79.8867 57.5222 79.185 54.5108 79.185H37.952C37.4988 79.1848 37.0604 79.3465 36.7158 79.6409C36.3712 79.9354 36.1431 80.3432 36.0725 80.791L32.9537 100.599L30.0793 118.802H30.0808Z" fill="#003087"/>
</svg>
