<svg width="300" height="200" viewBox="0 0 300 200" fill="none" xmlns="http://www.w3.org/2000/svg">
<rect width="300" height="200" rx="10" fill="#1A1F71"/>
<path d="M188.841 58C170.9 58 154.792 67.3576 154.792 84.5294C154.792 104.306 183.246 105.656 183.246 115.496C183.246 119.645 178.424 123.407 170.321 123.407C158.747 123.407 150.066 118.198 150.066 118.198L146.401 135.562C146.401 135.562 156.336 140 169.646 140C189.323 140 204.756 130.256 204.756 112.699C204.756 91.8612 176.205 90.5106 176.205 81.3459C176.205 78.0659 180.16 74.4965 188.262 74.4965C197.425 74.4965 204.949 78.2588 204.949 78.2588L208.614 61.4729C208.517 61.4729 200.319 58 188.841 58ZM24.4823 59.2541L24 61.7624C24 61.7624 31.5234 63.1129 38.3717 65.9106C47.1491 69.0941 47.7278 70.9271 49.2711 76.6188L65.379 138.649H86.9848L120.069 59.2541H98.5593L77.2429 113.278L68.562 67.4541C67.7903 62.2447 63.7392 59.2541 58.7236 59.2541H24.4823ZM128.75 59.2541L111.87 138.649H132.415L149.198 59.2541H128.75ZM243.145 59.2541C238.225 59.2541 235.621 61.8588 233.692 66.4894L203.598 138.649H225.108L229.255 126.591H255.491L257.998 138.649H277L260.506 59.2541H243.145ZM245.942 80.7671L252.308 110.576H235.235L245.942 80.7671Z" fill="white"/>
</svg>
