<svg width="300" height="200" viewBox="0 0 300 200" fill="none" xmlns="http://www.w3.org/2000/svg">
<rect width="300" height="200" rx="10" fill="white"/>
<path d="M179.868 46.4463H120.762V152.522H179.868V46.4463Z" fill="#FF5F00"/>
<path d="M124.515 99.4844C124.515 78.8689 134.084 59.1905 150.221 46.4464C120.95 23.3946 78.5433 28.4547 55.4638 57.8786C32.3842 87.1151 37.4505 129.47 66.9097 152.522C91.4904 171.826 125.828 171.826 150.409 152.522C134.084 139.778 124.515 120.1 124.515 99.4844Z" fill="#EB001B"/>
<path d="M259.614 99.4844C259.614 136.78 229.404 166.953 192.064 166.953C176.866 166.953 162.23 161.893 150.409 152.522C179.68 129.471 184.747 87.1151 161.667 57.6912C158.29 53.5681 154.537 49.6324 150.409 46.4464C179.68 23.3946 222.274 28.4547 245.166 57.8786C254.548 69.6857 259.614 84.3039 259.614 99.4844Z" fill="#F79E1B"/>
<path d="M253.235 141.278V139.029H254.173V138.654H251.921V139.029H252.86V141.278H253.235ZM257.551 141.278V138.654H256.8L256.049 140.528L255.299 138.654H254.548V141.278H255.111V139.216L255.862 140.903H256.425L257.175 139.216V141.278H257.551Z" fill="#F79E1B"/>
</svg>
