<svg xmlns="http://www.w3.org/2000/svg" xmlns:xlink="http://www.w3.org/1999/xlink" width="800" zoomAndPan="magnify" viewBox="0 0 600 225" height="300" preserveAspectRatio="xMidYMid meet" version="1.0"><defs><g/><clipPath id="72e1a97b63"><path d="M 67 42.472656 L 98.867188 42.472656 L 98.867188 75 L 67 75 Z M 67 42.472656 " clip-rule="nonzero"/></clipPath><clipPath id="7b19325e81"><path d="M 37.367188 72 L 69 72 L 69 105 L 37.367188 105 Z M 37.367188 72 " clip-rule="nonzero"/></clipPath><clipPath id="fd3fed7a0c"><path d="M 67 102 L 98.867188 102 L 98.867188 135 L 67 135 Z M 67 102 " clip-rule="nonzero"/></clipPath><clipPath id="c82acbdd7d"><path d="M 37.367188 132 L 69 132 L 69 165 L 37.367188 165 Z M 37.367188 132 " clip-rule="nonzero"/></clipPath><clipPath id="eacb784d70"><path d="M 67 162 L 98.867188 162 L 98.867188 193.972656 L 67 193.972656 Z M 67 162 " clip-rule="nonzero"/></clipPath><clipPath id="3c193df3c4"><rect x="0" width="188" y="0" height="91"/></clipPath><clipPath id="90859e6916"><rect x="0" width="415" y="0" height="147"/></clipPath><clipPath id="bc11ce9b27"><path d="M 515.992188 42.472656 L 577.492188 42.472656 L 577.492188 193.972656 L 515.992188 193.972656 Z M 515.992188 42.472656 " clip-rule="nonzero"/></clipPath><clipPath id="ed79fd9e19"><path d="M 0.992188 0.480469 L 33 0.480469 L 33 33 L 0.992188 33 Z M 0.992188 0.480469 " clip-rule="nonzero"/></clipPath><clipPath id="85cce99752"><path d="M 30 30 L 62.421875 30 L 62.421875 63 L 30 63 Z M 30 30 " clip-rule="nonzero"/></clipPath><clipPath id="4111440e74"><path d="M 0.992188 60 L 33 60 L 33 93 L 0.992188 93 Z M 0.992188 60 " clip-rule="nonzero"/></clipPath><clipPath id="94bcf1f800"><path d="M 30 90 L 62.421875 90 L 62.421875 123 L 30 123 Z M 30 90 " clip-rule="nonzero"/></clipPath><clipPath id="3cc9747e6a"><path d="M 0.992188 120 L 33 120 L 33 151.972656 L 0.992188 151.972656 Z M 0.992188 120 " clip-rule="nonzero"/></clipPath><clipPath id="9046a7e8bb"><rect x="0" width="63" y="0" height="152"/></clipPath></defs><g clip-path="url(#72e1a97b63)"><path fill="#f7cd34" d="M 67.152344 70.429688 L 67.152344 46.289062 C 67.152344 44.199219 68.847656 42.5 70.941406 42.5 L 95.078125 42.5 C 97.171875 42.5 98.867188 44.199219 98.867188 46.289062 L 98.867188 70.429688 C 98.867188 72.519531 97.171875 74.214844 95.078125 74.214844 L 70.941406 74.214844 C 68.847656 74.214844 67.152344 72.519531 67.152344 70.429688 Z M 67.152344 70.429688 " fill-opacity="1" fill-rule="nonzero"/></g><g clip-path="url(#7b19325e81)"><path fill="#f7cd34" d="M 37.277344 100.382812 L 37.277344 76.242188 C 37.277344 74.152344 38.972656 72.453125 41.066406 72.453125 L 65.203125 72.453125 C 67.296875 72.453125 68.992188 74.152344 68.992188 76.242188 L 68.992188 100.382812 C 68.992188 102.472656 67.296875 104.167969 65.203125 104.167969 L 41.066406 104.167969 C 38.972656 104.167969 37.277344 102.472656 37.277344 100.382812 Z M 37.277344 100.382812 " fill-opacity="1" fill-rule="nonzero"/></g><g clip-path="url(#fd3fed7a0c)"><path fill="#f7cd34" d="M 67.152344 130.335938 L 67.152344 106.195312 C 67.152344 104.101562 68.847656 102.40625 70.941406 102.40625 L 95.078125 102.40625 C 97.171875 102.40625 98.867188 104.101562 98.867188 106.195312 L 98.867188 130.335938 C 98.867188 132.425781 97.171875 134.121094 95.078125 134.121094 L 70.941406 134.121094 C 68.847656 134.121094 67.152344 132.425781 67.152344 130.335938 Z M 67.152344 130.335938 " fill-opacity="1" fill-rule="nonzero"/></g><g clip-path="url(#c82acbdd7d)"><path fill="#f7cd34" d="M 37.277344 160.289062 L 37.277344 136.148438 C 37.277344 134.054688 38.972656 132.359375 41.066406 132.359375 L 65.203125 132.359375 C 67.296875 132.359375 68.992188 134.054688 68.992188 136.148438 L 68.992188 160.289062 C 68.992188 162.378906 67.296875 164.074219 65.203125 164.074219 L 41.066406 164.074219 C 38.972656 164.074219 37.277344 162.378906 37.277344 160.289062 Z M 37.277344 160.289062 " fill-opacity="1" fill-rule="nonzero"/></g><g clip-path="url(#eacb784d70)"><path fill="#f7cd34" d="M 67.152344 190.238281 L 67.152344 166.101562 C 67.152344 164.007812 68.847656 162.3125 70.941406 162.3125 L 95.078125 162.3125 C 97.171875 162.3125 98.867188 164.007812 98.867188 166.101562 L 98.867188 190.238281 C 98.867188 192.332031 97.171875 194.027344 95.078125 194.027344 L 70.941406 194.027344 C 68.847656 194.027344 67.152344 192.332031 67.152344 190.238281 Z M 67.152344 190.238281 " fill-opacity="1" fill-rule="nonzero"/></g><g transform="matrix(1, 0, 0, 1, 105, 27)"><g clip-path="url(#3c193df3c4)"><g fill="#ffffff" fill-opacity="1"><g transform="translate(0.988607, 71.19767)"><g><path d="M 17.875 0 C 17.320312 0 16.84375 -0.195312 16.4375 -0.59375 C 16.039062 -1 15.84375 -1.476562 15.84375 -2.03125 L 15.84375 -36.59375 L 3.3125 -36.59375 C 2.757812 -36.59375 2.28125 -36.789062 1.875 -37.1875 C 1.476562 -37.59375 1.28125 -38.070312 1.28125 -38.625 L 1.28125 -50.78125 C 1.28125 -51.332031 1.476562 -51.804688 1.875 -52.203125 C 2.28125 -52.609375 2.757812 -52.8125 3.3125 -52.8125 L 47.53125 -52.8125 C 48.082031 -52.8125 48.5625 -52.609375 48.96875 -52.203125 C 49.375 -51.804688 49.578125 -51.332031 49.578125 -50.78125 L 49.578125 -38.625 C 49.578125 -38.070312 49.375 -37.59375 48.96875 -37.1875 C 48.5625 -36.789062 48.082031 -36.59375 47.53125 -36.59375 L 35.015625 -36.59375 L 35.015625 -2.03125 C 35.015625 -1.476562 34.8125 -1 34.40625 -0.59375 C 34 -0.195312 33.519531 0 32.96875 0 Z M 17.875 0 "/></g></g></g><g fill="#ffffff" fill-opacity="1"><g transform="translate(46.633351, 71.19767)"><g><path d="M 1.65625 0 C 1.207031 0 0.816406 -0.160156 0.484375 -0.484375 C 0.160156 -0.816406 0 -1.207031 0 -1.65625 C 0 -1.863281 0.0234375 -2.039062 0.078125 -2.1875 L 16.90625 -50.328125 C 17.101562 -50.984375 17.476562 -51.5625 18.03125 -52.0625 C 18.582031 -52.5625 19.335938 -52.8125 20.296875 -52.8125 L 36.671875 -52.8125 C 37.628906 -52.8125 38.382812 -52.5625 38.9375 -52.0625 C 39.488281 -51.5625 39.863281 -50.984375 40.0625 -50.328125 L 56.890625 -2.1875 C 56.941406 -2.039062 56.96875 -1.863281 56.96875 -1.65625 C 56.96875 -1.207031 56.800781 -0.816406 56.46875 -0.484375 C 56.144531 -0.160156 55.757812 0 55.3125 0 L 41.34375 0 C 39.832031 0 38.851562 -0.628906 38.40625 -1.890625 L 36.59375 -6.859375 L 20.375 -6.859375 L 18.5625 -1.890625 C 18.101562 -0.628906 17.125 0 15.625 0 Z M 24.21875 -21.578125 L 32.75 -21.578125 L 28.453125 -35.609375 Z M 24.21875 -21.578125 "/></g></g></g><g fill="#ffffff" fill-opacity="1"><g transform="translate(103.59525, 71.19767)"><g><path d="M 1.65625 0 C 1.207031 0 0.816406 -0.160156 0.484375 -0.484375 C 0.160156 -0.816406 0 -1.207031 0 -1.65625 C 0 -1.957031 0.0703125 -2.234375 0.21875 -2.484375 L 16.078125 -27.015625 L 1.8125 -50.328125 C 1.65625 -50.628906 1.578125 -50.90625 1.578125 -51.15625 C 1.578125 -51.613281 1.738281 -52.003906 2.0625 -52.328125 C 2.394531 -52.648438 2.789062 -52.8125 3.25 -52.8125 L 19.625 -52.8125 C 21.03125 -52.8125 22.082031 -52.1875 22.78125 -50.9375 L 28.0625 -41.71875 L 33.796875 -50.9375 C 34.503906 -52.1875 35.5625 -52.8125 36.96875 -52.8125 L 52.59375 -52.8125 C 53.039062 -52.8125 53.425781 -52.648438 53.75 -52.328125 C 54.082031 -52.003906 54.25 -51.613281 54.25 -51.15625 C 54.25 -50.851562 54.175781 -50.578125 54.03125 -50.328125 L 39.46875 -27.234375 L 55.53125 -2.484375 C 55.6875 -2.234375 55.765625 -1.957031 55.765625 -1.65625 C 55.765625 -1.207031 55.597656 -0.816406 55.265625 -0.484375 C 54.941406 -0.160156 54.550781 0 54.09375 0 L 37.125 0 C 35.757812 0 34.726562 -0.578125 34.03125 -1.734375 L 27.46875 -11.84375 L 21.203125 -1.734375 C 20.492188 -0.578125 19.460938 0 18.109375 0 Z M 1.65625 0 "/></g></g></g><g fill="#ffffff" fill-opacity="1"><g transform="translate(159.350005, 71.19767)"><g><path d="M 6.1875 0 C 5.632812 0 5.15625 -0.195312 4.75 -0.59375 C 4.351562 -1 4.15625 -1.476562 4.15625 -2.03125 L 4.15625 -50.78125 C 4.15625 -51.332031 4.351562 -51.804688 4.75 -52.203125 C 5.15625 -52.609375 5.632812 -52.8125 6.1875 -52.8125 L 21.578125 -52.8125 C 22.128906 -52.8125 22.601562 -52.609375 23 -52.203125 C 23.40625 -51.804688 23.609375 -51.332031 23.609375 -50.78125 L 23.609375 -2.03125 C 23.609375 -1.476562 23.40625 -1 23 -0.59375 C 22.601562 -0.195312 22.128906 0 21.578125 0 Z M 6.1875 0 "/></g></g></g></g></g><g transform="matrix(1, 0, 0, 1, 96, 77)"><g clip-path="url(#90859e6916)"><g fill="#f7cd34" fill-opacity="1"><g transform="translate(1.511199, 115.011406)"><g><path d="M 10.109375 0 C 9.203125 0 8.421875 -0.328125 7.765625 -0.984375 C 7.109375 -1.640625 6.78125 -2.421875 6.78125 -3.328125 L 6.78125 -83.015625 C 6.78125 -83.910156 7.109375 -84.6875 7.765625 -85.34375 C 8.421875 -86.007812 9.203125 -86.34375 10.109375 -86.34375 L 29.609375 -86.34375 C 31.910156 -86.34375 33.675781 -85.234375 34.90625 -83.015625 L 52.796875 -53.40625 L 70.671875 -83.015625 C 71.910156 -85.234375 73.679688 -86.34375 75.984375 -86.34375 L 95.46875 -86.34375 C 96.375 -86.34375 97.15625 -86.007812 97.8125 -85.34375 C 98.46875 -84.6875 98.796875 -83.910156 98.796875 -83.015625 L 98.796875 -3.328125 C 98.796875 -2.421875 98.46875 -1.640625 97.8125 -0.984375 C 97.15625 -0.328125 96.375 0 95.46875 0 L 73.140625 0 C 72.234375 0 71.453125 -0.328125 70.796875 -0.984375 C 70.140625 -1.640625 69.8125 -2.421875 69.8125 -3.328125 L 69.8125 -37.125 L 61.671875 -23.8125 C 61.097656 -22.90625 60.460938 -22.160156 59.765625 -21.578125 C 59.066406 -21.003906 58.179688 -20.71875 57.109375 -20.71875 L 48.46875 -20.71875 C 47.40625 -20.71875 46.523438 -21.003906 45.828125 -21.578125 C 45.128906 -22.160156 44.488281 -22.90625 43.90625 -23.8125 L 35.765625 -37.125 L 35.765625 -3.328125 C 35.765625 -2.421875 35.4375 -1.640625 34.78125 -0.984375 C 34.125 -0.328125 33.34375 0 32.4375 0 Z M 10.109375 0 "/></g></g></g><g fill="#f7cd34" fill-opacity="1"><g transform="translate(107.087127, 115.011406)"><g><path d="M 45.765625 1.234375 C 33.429688 1.234375 23.601562 -1.597656 16.28125 -7.265625 C 8.957031 -12.941406 5.050781 -21.207031 4.5625 -32.0625 C 4.476562 -34.289062 4.4375 -37.867188 4.4375 -42.796875 C 4.4375 -47.816406 4.476562 -51.476562 4.5625 -53.78125 C 4.8125 -60.851562 6.679688 -66.9375 10.171875 -72.03125 C 13.671875 -77.132812 18.460938 -81 24.546875 -83.625 C 30.628906 -86.257812 37.703125 -87.578125 45.765625 -87.578125 C 53.816406 -87.578125 60.882812 -86.257812 66.96875 -83.625 C 73.0625 -81 77.851562 -77.132812 81.34375 -72.03125 C 84.84375 -66.9375 86.710938 -60.851562 86.953125 -53.78125 C 87.117188 -49.175781 87.203125 -45.515625 87.203125 -42.796875 C 87.203125 -40.085938 87.117188 -36.507812 86.953125 -32.0625 C 86.460938 -21.207031 82.554688 -12.941406 75.234375 -7.265625 C 67.921875 -1.597656 58.097656 1.234375 45.765625 1.234375 Z M 45.765625 -22.8125 C 48.554688 -22.8125 50.753906 -23.632812 52.359375 -25.28125 C 53.960938 -26.925781 54.804688 -29.4375 54.890625 -32.8125 C 55.054688 -37.582031 55.140625 -41.078125 55.140625 -43.296875 C 55.140625 -45.679688 55.054688 -49.09375 54.890625 -53.53125 C 54.804688 -56.90625 53.941406 -59.410156 52.296875 -61.046875 C 50.648438 -62.691406 48.472656 -63.515625 45.765625 -63.515625 C 43.046875 -63.515625 40.863281 -62.691406 39.21875 -61.046875 C 37.570312 -59.410156 36.710938 -56.90625 36.640625 -53.53125 C 36.554688 -51.3125 36.515625 -47.898438 36.515625 -43.296875 C 36.515625 -38.691406 36.554688 -35.195312 36.640625 -32.8125 C 36.710938 -29.4375 37.550781 -26.925781 39.15625 -25.28125 C 40.757812 -23.632812 42.960938 -22.8125 45.765625 -22.8125 Z M 45.765625 -22.8125 "/></g></g></g><g fill="#f7cd34" fill-opacity="1"><g transform="translate(195.765806, 115.011406)"><g><path d="M 30.71875 0 C 29.15625 0 27.921875 -0.410156 27.015625 -1.234375 C 26.109375 -2.054688 25.488281 -3.003906 25.15625 -4.078125 L 1.96875 -82.765625 L 1.84375 -83.625 C 1.84375 -84.363281 2.109375 -85 2.640625 -85.53125 C 3.179688 -86.070312 3.820312 -86.34375 4.5625 -86.34375 L 27.5 -86.34375 C 29.0625 -86.34375 30.296875 -85.929688 31.203125 -85.109375 C 32.109375 -84.285156 32.726562 -83.335938 33.0625 -82.265625 L 44.78125 -36.390625 L 56.484375 -82.265625 C 56.816406 -83.335938 57.4375 -84.285156 58.34375 -85.109375 C 59.25 -85.929688 60.484375 -86.34375 62.046875 -86.34375 L 84.984375 -86.34375 C 85.722656 -86.34375 86.359375 -86.070312 86.890625 -85.53125 C 87.429688 -85 87.703125 -84.363281 87.703125 -83.625 L 87.578125 -82.765625 L 64.390625 -4.078125 C 64.054688 -3.003906 63.4375 -2.054688 62.53125 -1.234375 C 61.625 -0.410156 60.390625 0 58.828125 0 Z M 30.71875 0 "/></g></g></g><g fill="#f7cd34" fill-opacity="1"><g transform="translate(285.308007, 115.011406)"><g><path d="M 10.109375 0 C 9.203125 0 8.421875 -0.328125 7.765625 -0.984375 C 7.109375 -1.640625 6.78125 -2.421875 6.78125 -3.328125 L 6.78125 -83.015625 C 6.78125 -83.910156 7.109375 -84.6875 7.765625 -85.34375 C 8.421875 -86.007812 9.203125 -86.34375 10.109375 -86.34375 L 35.28125 -86.34375 C 36.1875 -86.34375 36.96875 -86.007812 37.625 -85.34375 C 38.28125 -84.6875 38.609375 -83.910156 38.609375 -83.015625 L 38.609375 -3.328125 C 38.609375 -2.421875 38.28125 -1.640625 37.625 -0.984375 C 36.96875 -0.328125 36.1875 0 35.28125 0 Z M 10.109375 0 "/></g></g></g><g fill="#f7cd34" fill-opacity="1"><g transform="translate(330.695783, 115.011406)"><g><path d="M 29.234375 0 C 28.328125 0 27.546875 -0.328125 26.890625 -0.984375 C 26.234375 -1.640625 25.90625 -2.421875 25.90625 -3.328125 L 25.90625 -59.828125 L 5.421875 -59.828125 C 4.523438 -59.828125 3.742188 -60.15625 3.078125 -60.8125 C 2.421875 -61.46875 2.09375 -62.25 2.09375 -63.15625 L 2.09375 -83.015625 C 2.09375 -83.910156 2.421875 -84.6875 3.078125 -85.34375 C 3.742188 -86.007812 4.523438 -86.34375 5.421875 -86.34375 L 77.703125 -86.34375 C 78.609375 -86.34375 79.390625 -86.007812 80.046875 -85.34375 C 80.703125 -84.6875 81.03125 -83.910156 81.03125 -83.015625 L 81.03125 -63.15625 C 81.03125 -62.25 80.703125 -61.46875 80.046875 -60.8125 C 79.390625 -60.15625 78.609375 -59.828125 77.703125 -59.828125 L 57.234375 -59.828125 L 57.234375 -3.328125 C 57.234375 -2.421875 56.90625 -1.640625 56.25 -0.984375 C 55.59375 -0.328125 54.8125 0 53.90625 0 Z M 29.234375 0 "/></g></g></g></g></g><g clip-path="url(#bc11ce9b27)"><g transform="matrix(1, 0, 0, 1, 515, 42)"><g clip-path="url(#9046a7e8bb)"><g clip-path="url(#ed79fd9e19)"><path fill="#f7cd34" d="M 32.636719 28.429688 L 32.636719 4.289062 C 32.636719 2.199219 30.941406 0.5 28.851562 0.5 L 4.710938 0.5 C 2.621094 0.5 0.921875 2.199219 0.921875 4.289062 L 0.921875 28.429688 C 0.921875 30.519531 2.621094 32.214844 4.710938 32.214844 L 28.851562 32.214844 C 30.941406 32.214844 32.636719 30.519531 32.636719 28.429688 Z M 32.636719 28.429688 " fill-opacity="1" fill-rule="nonzero"/></g><g clip-path="url(#85cce99752)"><path fill="#f7cd34" d="M 62.511719 58.382812 L 62.511719 34.242188 C 62.511719 32.152344 60.816406 30.453125 58.722656 30.453125 L 34.585938 30.453125 C 32.492188 30.453125 30.796875 32.152344 30.796875 34.242188 L 30.796875 58.382812 C 30.796875 60.472656 32.492188 62.167969 34.585938 62.167969 L 58.722656 62.167969 C 60.816406 62.167969 62.511719 60.472656 62.511719 58.382812 Z M 62.511719 58.382812 " fill-opacity="1" fill-rule="nonzero"/></g><g clip-path="url(#4111440e74)"><path fill="#f7cd34" d="M 32.636719 88.335938 L 32.636719 64.195312 C 32.636719 62.101562 30.941406 60.40625 28.851562 60.40625 L 4.710938 60.40625 C 2.621094 60.40625 0.921875 62.101562 0.921875 64.195312 L 0.921875 88.335938 C 0.921875 90.425781 2.621094 92.121094 4.710938 92.121094 L 28.851562 92.121094 C 30.941406 92.121094 32.636719 90.425781 32.636719 88.335938 Z M 32.636719 88.335938 " fill-opacity="1" fill-rule="nonzero"/></g><g clip-path="url(#94bcf1f800)"><path fill="#f7cd34" d="M 62.511719 118.289062 L 62.511719 94.148438 C 62.511719 92.054688 60.816406 90.359375 58.722656 90.359375 L 34.585938 90.359375 C 32.492188 90.359375 30.796875 92.054688 30.796875 94.148438 L 30.796875 118.289062 C 30.796875 120.378906 32.492188 122.074219 34.585938 122.074219 L 58.722656 122.074219 C 60.816406 122.074219 62.511719 120.378906 62.511719 118.289062 Z M 62.511719 118.289062 " fill-opacity="1" fill-rule="nonzero"/></g><g clip-path="url(#3cc9747e6a)"><path fill="#f7cd34" d="M 32.636719 148.238281 L 32.636719 124.101562 C 32.636719 122.007812 30.941406 120.3125 28.851562 120.3125 L 4.710938 120.3125 C 2.621094 120.3125 0.921875 122.007812 0.921875 124.101562 L 0.921875 148.238281 C 0.921875 150.332031 2.621094 152.027344 4.710938 152.027344 L 28.851562 152.027344 C 30.941406 152.027344 32.636719 150.332031 32.636719 148.238281 Z M 32.636719 148.238281 " fill-opacity="1" fill-rule="nonzero"/></g></g></g></g></svg>