<svg xmlns="http://www.w3.org/2000/svg" xmlns:xlink="http://www.w3.org/1999/xlink" width="800" zoomAndPan="magnify" viewBox="0 0 600 225" height="300" preserveAspectRatio="xMidYMid meet" version="1.0"><defs><g/><clipPath id="41cd07f307"><path d="M 98 22.5 L 158 22.5 L 158 43 L 98 43 Z M 98 22.5 " clip-rule="nonzero"/></clipPath><clipPath id="6f39548717"><path d="M 23 51 L 232 51 L 232 202.5 L 23 202.5 Z M 23 51 " clip-rule="nonzero"/></clipPath><clipPath id="25ad4c963a"><path d="M 94.050781 104.949219 L 109 104.949219 L 109 120 L 94.050781 120 Z M 94.050781 104.949219 " clip-rule="nonzero"/></clipPath><clipPath id="25457e46dc"><path d="M 107 118 L 122 118 L 122 132.699219 L 107 132.699219 Z M 107 118 " clip-rule="nonzero"/></clipPath><clipPath id="54a43c6a3e"><path d="M 120 104.949219 L 135 104.949219 L 135 120 L 120 120 Z M 120 104.949219 " clip-rule="nonzero"/></clipPath><clipPath id="9d5fdf2efb"><path d="M 134 118 L 149 118 L 149 132.699219 L 134 132.699219 Z M 134 118 " clip-rule="nonzero"/></clipPath><clipPath id="30edc4638f"><path d="M 147 104.949219 L 161.550781 104.949219 L 161.550781 120 L 147 120 Z M 147 104.949219 " clip-rule="nonzero"/></clipPath><clipPath id="31a5cc220a"><rect x="0" width="188" y="0" height="91"/></clipPath></defs><g clip-path="url(#41cd07f307)"><path fill="#000000" d="M 107.847656 22.613281 C 105.539062 22.613281 103.34375 24.566406 102.707031 26.773438 L 98.527344 38.679688 C 97.886719 40.886719 99.371094 42.839844 101.675781 42.839844 L 154.011719 42.839844 C 156.316406 42.839844 157.796875 40.886719 157.160156 38.679688 L 152.976562 26.769531 C 152.339844 24.5625 150.144531 22.609375 147.835938 22.609375 L 107.847656 22.609375 Z M 107.847656 22.613281 " fill-opacity="1" fill-rule="evenodd"/></g><g clip-path="url(#6f39548717)"><path fill="#000000" d="M 163.601562 132.519531 L 92.078125 132.519531 C 89.039062 132.519531 88.355469 136.027344 89.757812 139.414062 C 92.699219 146.585938 100.511719 153.351562 107.957031 151.398438 L 147.726562 151.398438 C 155.425781 151.398438 162.984375 146.582031 165.921875 139.414062 C 167.324219 136.027344 166.605469 132.960938 163.601562 132.519531 Z M 46.347656 132.234375 C 45.0625 136.207031 43.5625 144.058594 50.628906 146.632812 C 56.417969 148.742188 68.621094 150.265625 75.109375 151.257812 C 81.363281 152.195312 82.917969 148.507812 80.757812 143.007812 C 76.699219 132.820312 67.554688 130.660156 58.964844 129.183594 C 50.390625 127.707031 47.316406 129.261719 46.347656 132.234375 Z M 196.722656 129.183594 C 188.144531 130.660156 178.980469 132.820312 174.945312 143.007812 C 172.761719 148.507812 174.324219 152.191406 180.574219 151.257812 C 187.085938 150.269531 199.269531 148.742188 205.058594 146.632812 C 212.121094 144.058594 210.640625 136.207031 209.335938 132.234375 C 208.363281 129.261719 205.308594 127.707031 196.722656 129.183594 Z M 127.84375 60.523438 C 114.433594 60.542969 99.941406 61 87.675781 61.84375 C 83.03125 62.160156 78.769531 64.667969 75.902344 69.292969 C 69.765625 79.238281 64.289062 88.601562 60.839844 99.007812 C 60.839844 99.007812 99.300781 102.835938 127.84375 102.835938 C 156.394531 102.835938 194.859375 99.007812 194.859375 99.007812 C 191.394531 88.601562 185.9375 79.238281 179.796875 69.292969 C 176.933594 64.667969 172.65625 62.160156 168.007812 61.84375 C 155.761719 61 141.253906 60.542969 127.84375 60.523438 Z M 127.84375 51.179688 C 143.414062 51.179688 159.324219 51.097656 174.535156 53.210938 C 181.597656 54.199219 186.128906 58.332031 189.390625 63.128906 C 196.820312 74.042969 201.609375 85.578125 205.789062 97.242188 L 224.433594 97.242188 C 229.636719 97.242188 232.738281 101.277344 231.386719 106.28125 C 229.90625 111.828125 228.21875 114.542969 220.074219 116.4375 L 216.96875 117.152344 C 219.390625 121.773438 221.171875 126.671875 221.171875 131.039062 L 221.171875 166.882812 C 221.171875 172.875 217.019531 177.945312 212.1875 179.839844 L 212.1875 196.617188 C 212.1875 199.894531 209.546875 202.53125 206.269531 202.53125 L 189.480469 202.53125 C 186.207031 202.53125 183.5625 199.894531 183.5625 196.617188 L 183.5625 180.664062 L 72.132812 180.664062 L 72.132812 196.617188 C 72.132812 199.894531 69.492188 202.53125 66.210938 202.53125 L 49.429688 202.53125 C 46.152344 202.53125 43.515625 199.894531 43.515625 196.617188 L 43.515625 179.839844 C 38.675781 177.945312 34.511719 172.894531 34.511719 166.882812 L 34.511719 131.042969 C 34.511719 126.675781 36.289062 121.773438 38.722656 117.15625 L 35.601562 116.4375 C 27.476562 114.546875 25.789062 111.832031 24.296875 106.285156 C 22.964844 101.277344 26.066406 97.246094 31.25 97.246094 L 49.910156 97.246094 C 54.089844 85.582031 58.863281 74.046875 66.292969 63.132812 C 69.554688 58.332031 74.105469 54.199219 81.152344 53.214844 C 96.375 51.097656 112.269531 51.179688 127.84375 51.179688 Z M 127.84375 51.179688 " fill-opacity="1" fill-rule="evenodd"/></g><g clip-path="url(#25ad4c963a)"><path fill="#f7cd34" d="M 106.480469 119.054688 L 95.746094 119.054688 C 94.8125 119.054688 94.058594 118.300781 94.058594 117.371094 L 94.058594 106.632812 C 94.058594 105.703125 94.8125 104.949219 95.746094 104.949219 L 106.480469 104.949219 C 107.410156 104.949219 108.167969 105.703125 108.167969 106.632812 L 108.167969 117.371094 C 108.167969 118.300781 107.410156 119.054688 106.480469 119.054688 Z M 106.480469 119.054688 " fill-opacity="1" fill-rule="nonzero"/></g><g clip-path="url(#25457e46dc)"><path fill="#f7cd34" d="M 119.804688 132.34375 L 109.066406 132.34375 C 108.136719 132.34375 107.382812 131.589844 107.382812 130.660156 L 107.382812 119.921875 C 107.382812 118.992188 108.136719 118.238281 109.066406 118.238281 L 119.804688 118.238281 C 120.734375 118.238281 121.488281 118.992188 121.488281 119.921875 L 121.488281 130.660156 C 121.488281 131.589844 120.734375 132.34375 119.804688 132.34375 Z M 119.804688 132.34375 " fill-opacity="1" fill-rule="nonzero"/></g><g clip-path="url(#54a43c6a3e)"><path fill="#f7cd34" d="M 133.128906 119.054688 L 122.390625 119.054688 C 121.460938 119.054688 120.707031 118.300781 120.707031 117.371094 L 120.707031 106.632812 C 120.707031 105.703125 121.460938 104.949219 122.390625 104.949219 L 133.128906 104.949219 C 134.058594 104.949219 134.8125 105.703125 134.8125 106.632812 L 134.8125 117.371094 C 134.8125 118.300781 134.058594 119.054688 133.128906 119.054688 Z M 133.128906 119.054688 " fill-opacity="1" fill-rule="nonzero"/></g><g clip-path="url(#9d5fdf2efb)"><path fill="#f7cd34" d="M 146.449219 132.34375 L 135.714844 132.34375 C 134.785156 132.34375 134.027344 131.589844 134.027344 130.660156 L 134.027344 119.921875 C 134.027344 118.992188 134.785156 118.238281 135.714844 118.238281 L 146.449219 118.238281 C 147.382812 118.238281 148.136719 118.992188 148.136719 119.921875 L 148.136719 130.660156 C 148.136719 131.589844 147.382812 132.34375 146.449219 132.34375 Z M 146.449219 132.34375 " fill-opacity="1" fill-rule="nonzero"/></g><g clip-path="url(#30edc4638f)"><path fill="#f7cd34" d="M 159.773438 119.054688 L 149.035156 119.054688 C 148.105469 119.054688 147.351562 118.300781 147.351562 117.371094 L 147.351562 106.632812 C 147.351562 105.703125 148.105469 104.949219 149.035156 104.949219 L 159.773438 104.949219 C 160.703125 104.949219 161.457031 105.703125 161.457031 106.632812 L 161.457031 117.371094 C 161.457031 118.300781 160.703125 119.054688 159.773438 119.054688 Z M 159.773438 119.054688 " fill-opacity="1" fill-rule="nonzero"/></g><g transform="matrix(1, 0, 0, 1, 232, 33)"><g clip-path="url(#31a5cc220a)"><g fill="#ffffff" fill-opacity="1"><g transform="translate(0.655501, 71.034073)"><g><path d="M 17.875 0 C 17.320312 0 16.84375 -0.195312 16.4375 -0.59375 C 16.039062 -1 15.84375 -1.476562 15.84375 -2.03125 L 15.84375 -36.59375 L 3.3125 -36.59375 C 2.757812 -36.59375 2.28125 -36.789062 1.875 -37.1875 C 1.476562 -37.59375 1.28125 -38.070312 1.28125 -38.625 L 1.28125 -50.78125 C 1.28125 -51.332031 1.476562 -51.804688 1.875 -52.203125 C 2.28125 -52.609375 2.757812 -52.8125 3.3125 -52.8125 L 47.53125 -52.8125 C 48.082031 -52.8125 48.5625 -52.609375 48.96875 -52.203125 C 49.375 -51.804688 49.578125 -51.332031 49.578125 -50.78125 L 49.578125 -38.625 C 49.578125 -38.070312 49.375 -37.59375 48.96875 -37.1875 C 48.5625 -36.789062 48.082031 -36.59375 47.53125 -36.59375 L 35.015625 -36.59375 L 35.015625 -2.03125 C 35.015625 -1.476562 34.8125 -1 34.40625 -0.59375 C 34 -0.195312 33.519531 0 32.96875 0 Z M 17.875 0 "/></g></g></g><g fill="#ffffff" fill-opacity="1"><g transform="translate(46.300245, 71.034073)"><g><path d="M 1.65625 0 C 1.207031 0 0.816406 -0.160156 0.484375 -0.484375 C 0.160156 -0.816406 0 -1.207031 0 -1.65625 C 0 -1.863281 0.0234375 -2.039062 0.078125 -2.1875 L 16.90625 -50.328125 C 17.101562 -50.984375 17.476562 -51.5625 18.03125 -52.0625 C 18.582031 -52.5625 19.335938 -52.8125 20.296875 -52.8125 L 36.671875 -52.8125 C 37.628906 -52.8125 38.382812 -52.5625 38.9375 -52.0625 C 39.488281 -51.5625 39.863281 -50.984375 40.0625 -50.328125 L 56.890625 -2.1875 C 56.941406 -2.039062 56.96875 -1.863281 56.96875 -1.65625 C 56.96875 -1.207031 56.800781 -0.816406 56.46875 -0.484375 C 56.144531 -0.160156 55.757812 0 55.3125 0 L 41.34375 0 C 39.832031 0 38.851562 -0.628906 38.40625 -1.890625 L 36.59375 -6.859375 L 20.375 -6.859375 L 18.5625 -1.890625 C 18.101562 -0.628906 17.125 0 15.625 0 Z M 24.21875 -21.578125 L 32.75 -21.578125 L 28.453125 -35.609375 Z M 24.21875 -21.578125 "/></g></g></g><g fill="#ffffff" fill-opacity="1"><g transform="translate(103.262144, 71.034073)"><g><path d="M 1.65625 0 C 1.207031 0 0.816406 -0.160156 0.484375 -0.484375 C 0.160156 -0.816406 0 -1.207031 0 -1.65625 C 0 -1.957031 0.0703125 -2.234375 0.21875 -2.484375 L 16.078125 -27.015625 L 1.8125 -50.328125 C 1.65625 -50.628906 1.578125 -50.90625 1.578125 -51.15625 C 1.578125 -51.613281 1.738281 -52.003906 2.0625 -52.328125 C 2.394531 -52.648438 2.789062 -52.8125 3.25 -52.8125 L 19.625 -52.8125 C 21.03125 -52.8125 22.082031 -52.1875 22.78125 -50.9375 L 28.0625 -41.71875 L 33.796875 -50.9375 C 34.503906 -52.1875 35.5625 -52.8125 36.96875 -52.8125 L 52.59375 -52.8125 C 53.039062 -52.8125 53.425781 -52.648438 53.75 -52.328125 C 54.082031 -52.003906 54.25 -51.613281 54.25 -51.15625 C 54.25 -50.851562 54.175781 -50.578125 54.03125 -50.328125 L 39.46875 -27.234375 L 55.53125 -2.484375 C 55.6875 -2.234375 55.765625 -1.957031 55.765625 -1.65625 C 55.765625 -1.207031 55.597656 -0.816406 55.265625 -0.484375 C 54.941406 -0.160156 54.550781 0 54.09375 0 L 37.125 0 C 35.757812 0 34.726562 -0.578125 34.03125 -1.734375 L 27.46875 -11.84375 L 21.203125 -1.734375 C 20.492188 -0.578125 19.460938 0 18.109375 0 Z M 1.65625 0 "/></g></g></g><g fill="#ffffff" fill-opacity="1"><g transform="translate(159.0169, 71.034073)"><g><path d="M 6.1875 0 C 5.632812 0 5.15625 -0.195312 4.75 -0.59375 C 4.351562 -1 4.15625 -1.476562 4.15625 -2.03125 L 4.15625 -50.78125 C 4.15625 -51.332031 4.351562 -51.804688 4.75 -52.203125 C 5.15625 -52.609375 5.632812 -52.8125 6.1875 -52.8125 L 21.578125 -52.8125 C 22.128906 -52.8125 22.601562 -52.609375 23 -52.203125 C 23.40625 -51.804688 23.609375 -51.332031 23.609375 -50.78125 L 23.609375 -2.03125 C 23.609375 -1.476562 23.40625 -1 23 -0.59375 C 22.601562 -0.195312 22.128906 0 21.578125 0 Z M 6.1875 0 "/></g></g></g></g></g><g fill="#f7cd34" fill-opacity="1"><g transform="translate(227.544819, 200.492632)"><g><path d="M 8.375 0 C 7.625 0 6.972656 -0.269531 6.421875 -0.8125 C 5.878906 -1.351562 5.609375 -2 5.609375 -2.75 L 5.609375 -68.671875 C 5.609375 -69.421875 5.878906 -70.066406 6.421875 -70.609375 C 6.972656 -71.160156 7.625 -71.4375 8.375 -71.4375 L 24.484375 -71.4375 C 26.390625 -71.4375 27.851562 -70.515625 28.875 -68.671875 L 43.671875 -44.1875 L 58.46875 -68.671875 C 59.488281 -70.515625 60.953125 -71.4375 62.859375 -71.4375 L 78.984375 -71.4375 C 79.734375 -71.4375 80.378906 -71.160156 80.921875 -70.609375 C 81.460938 -70.066406 81.734375 -69.421875 81.734375 -68.671875 L 81.734375 -2.75 C 81.734375 -2 81.460938 -1.351562 80.921875 -0.8125 C 80.378906 -0.269531 79.734375 0 78.984375 0 L 60.515625 0 C 59.765625 0 59.117188 -0.269531 58.578125 -0.8125 C 58.035156 -1.351562 57.765625 -2 57.765625 -2.75 L 57.765625 -30.71875 L 51.03125 -19.6875 C 50.550781 -18.945312 50.019531 -18.335938 49.4375 -17.859375 C 48.863281 -17.378906 48.132812 -17.140625 47.25 -17.140625 L 40.109375 -17.140625 C 39.222656 -17.140625 38.488281 -17.378906 37.90625 -17.859375 C 37.332031 -18.335938 36.804688 -18.945312 36.328125 -19.6875 L 29.59375 -30.71875 L 29.59375 -2.75 C 29.59375 -2 29.316406 -1.351562 28.765625 -0.8125 C 28.222656 -0.269531 27.582031 0 26.84375 0 Z M 8.375 0 "/></g></g></g><g fill="#f7cd34" fill-opacity="1"><g transform="translate(314.896869, 200.492632)"><g><path d="M 37.859375 1.015625 C 27.648438 1.015625 19.519531 -1.328125 13.46875 -6.015625 C 7.414062 -10.710938 4.1875 -17.550781 3.78125 -26.53125 C 3.707031 -28.363281 3.671875 -31.320312 3.671875 -35.40625 C 3.671875 -39.5625 3.707031 -42.59375 3.78125 -44.5 C 3.976562 -50.34375 5.519531 -55.375 8.40625 -59.59375 C 11.300781 -63.8125 15.265625 -67.007812 20.296875 -69.1875 C 25.335938 -71.363281 31.191406 -72.453125 37.859375 -72.453125 C 44.523438 -72.453125 50.375 -71.363281 55.40625 -69.1875 C 60.445312 -67.007812 64.410156 -63.8125 67.296875 -59.59375 C 70.191406 -55.375 71.738281 -50.34375 71.9375 -44.5 C 72.070312 -40.6875 72.140625 -37.65625 72.140625 -35.40625 C 72.140625 -33.164062 72.070312 -30.207031 71.9375 -26.53125 C 71.53125 -17.550781 68.300781 -10.710938 62.25 -6.015625 C 56.195312 -1.328125 48.066406 1.015625 37.859375 1.015625 Z M 37.859375 -18.875 C 40.171875 -18.875 41.988281 -19.550781 43.3125 -20.90625 C 44.644531 -22.269531 45.34375 -24.347656 45.40625 -27.140625 C 45.539062 -31.085938 45.609375 -33.976562 45.609375 -35.8125 C 45.609375 -37.789062 45.539062 -40.613281 45.40625 -44.28125 C 45.34375 -47.070312 44.628906 -49.144531 43.265625 -50.5 C 41.910156 -51.863281 40.109375 -52.546875 37.859375 -52.546875 C 35.609375 -52.546875 33.800781 -51.863281 32.4375 -50.5 C 31.082031 -49.144531 30.375 -47.070312 30.3125 -44.28125 C 30.238281 -42.445312 30.203125 -39.625 30.203125 -35.8125 C 30.203125 -32.007812 30.238281 -29.117188 30.3125 -27.140625 C 30.375 -24.347656 31.066406 -22.269531 32.390625 -20.90625 C 33.722656 -19.550781 35.546875 -18.875 37.859375 -18.875 Z M 37.859375 -18.875 "/></g></g></g><g fill="#f7cd34" fill-opacity="1"><g transform="translate(388.268372, 200.492632)"><g><path d="M 25.40625 0 C 24.113281 0 23.09375 -0.335938 22.34375 -1.015625 C 21.59375 -1.703125 21.082031 -2.488281 20.8125 -3.375 L 1.625 -68.46875 L 1.53125 -69.1875 C 1.53125 -69.800781 1.75 -70.328125 2.1875 -70.765625 C 2.632812 -71.210938 3.164062 -71.4375 3.78125 -71.4375 L 22.75 -71.4375 C 24.050781 -71.4375 25.070312 -71.09375 25.8125 -70.40625 C 26.5625 -69.726562 27.070312 -68.945312 27.34375 -68.0625 L 37.046875 -30.109375 L 46.734375 -68.0625 C 47.003906 -68.945312 47.515625 -69.726562 48.265625 -70.40625 C 49.015625 -71.09375 50.035156 -71.4375 51.328125 -71.4375 L 70.3125 -71.4375 C 70.925781 -71.4375 71.453125 -71.210938 71.890625 -70.765625 C 72.335938 -70.328125 72.5625 -69.800781 72.5625 -69.1875 L 72.453125 -68.46875 L 53.265625 -3.375 C 52.992188 -2.488281 52.484375 -1.703125 51.734375 -1.015625 C 50.984375 -0.335938 49.960938 0 48.671875 0 Z M 25.40625 0 "/></g></g></g><g fill="#f7cd34" fill-opacity="1"><g transform="translate(462.354341, 200.492632)"><g><path d="M 8.375 0 C 7.625 0 6.972656 -0.269531 6.421875 -0.8125 C 5.878906 -1.351562 5.609375 -2 5.609375 -2.75 L 5.609375 -68.671875 C 5.609375 -69.421875 5.878906 -70.066406 6.421875 -70.609375 C 6.972656 -71.160156 7.625 -71.4375 8.375 -71.4375 L 29.1875 -71.4375 C 29.9375 -71.4375 30.582031 -71.160156 31.125 -70.609375 C 31.664062 -70.066406 31.9375 -69.421875 31.9375 -68.671875 L 31.9375 -2.75 C 31.9375 -2 31.664062 -1.351562 31.125 -0.8125 C 30.582031 -0.269531 29.9375 0 29.1875 0 Z M 8.375 0 "/></g></g></g><g fill="#f7cd34" fill-opacity="1"><g transform="translate(499.907554, 200.492632)"><g><path d="M 24.1875 0 C 23.4375 0 22.789062 -0.269531 22.25 -0.8125 C 21.707031 -1.351562 21.4375 -2 21.4375 -2.75 L 21.4375 -49.5 L 4.484375 -49.5 C 3.742188 -49.5 3.097656 -49.769531 2.546875 -50.3125 C 2.003906 -50.851562 1.734375 -51.5 1.734375 -52.25 L 1.734375 -68.671875 C 1.734375 -69.421875 2.003906 -70.066406 2.546875 -70.609375 C 3.097656 -71.160156 3.742188 -71.4375 4.484375 -71.4375 L 64.296875 -71.4375 C 65.035156 -71.4375 65.675781 -71.160156 66.21875 -70.609375 C 66.769531 -70.066406 67.046875 -69.421875 67.046875 -68.671875 L 67.046875 -52.25 C 67.046875 -51.5 66.769531 -50.851562 66.21875 -50.3125 C 65.675781 -49.769531 65.035156 -49.5 64.296875 -49.5 L 47.34375 -49.5 L 47.34375 -2.75 C 47.34375 -2 47.070312 -1.351562 46.53125 -0.8125 C 45.988281 -0.269531 45.34375 0 44.59375 0 Z M 24.1875 0 "/></g></g></g></svg>